<?xml version="1.0" encoding="utf-8"?>
<!-- Generator: Adobe Illustrator 16.0.0, SVG Export Plug-In . SVG Version: 6.00 Build 0)  -->
<!DOCTYPE svg PUBLIC "-//W3C//DTD SVG 1.1//EN" "http://www.w3.org/Graphics/SVG/1.1/DTD/svg11.dtd">
<svg version="1.1" id="Layer_1" xmlns="http://www.w3.org/2000/svg" xmlns:xlink="http://www.w3.org/1999/xlink" x="0px" y="0px"
	 width="313.458px" height="298.396px" viewBox="0 0 313.458 298.396" enable-background="new 0 0 313.458 298.396"
	 xml:space="preserve">
<g id="Layer_1_1_">
	<g>
		<path d="M307.442,134.668l-3.969-6.859l-14.15-24.511c-4.77-8.26-7.07-15.409-7.07-20.63c0-3.84,1.24-6.62,3.685-8.029
			c-5.74,3.31-14.817-2.91-23.104-17.25l-14.146-24.521l-3.961-6.85c-3.106-5.38-6.354-9.601-9.699-12.591
			c-4.229-1.369-9.43-2.029-15.541-2.029h-36.22c-8.28,0-14.909-1.21-19.479-3.221c-4.553-2.021-7.042-4.869-7.042-8.18
			c0,6.619-9.92,11.399-26.489,11.399h-36.24c-6.17,0-11.399,0.67-15.659,2.069c-3.33,2.979-6.521,7.17-9.611,12.5l-3.92,6.801
			l-14.189,24.58c-6.82,11.829-14.21,18.14-19.8,18.14c-1.19,0-2.3-0.279-3.31-0.87c5.729,3.311,4.89,14.301-3.391,28.641
			l-14.25,24.66l-3.87,6.721c-3.069,5.329-5.11,10.18-6.01,14.55c0.89,4.41,2.931,9.29,6.03,14.67l3.89,6.74l14.229,24.64
			c4.761,8.25,7.061,15.369,7.061,20.58c0,3.84-1.25,6.619-3.689,8.029c5.739-3.312,14.84,2.938,23.129,17.291l14.181,24.566
			l3.93,6.812c3.04,5.238,6.19,9.379,9.45,12.356c4.29,1.433,9.57,2.12,15.8,2.12h36.24c8.28,0,14.91,1.2,19.472,3.222
			c4.549,2.028,7.028,4.87,7.028,8.181c0-6.629,9.94-11.398,26.511-11.398h36.229c6.16,0,11.394-0.658,15.631-2.061
			c3.32-2.979,6.513-7.17,9.592-12.479l3.98-6.892l14.129-24.488c6.819-11.83,14.2-18.141,19.801-18.141
			c1.188,0,2.303,0.289,3.312,0.869c-5.729-3.312-4.897-14.289,3.381-28.631l14.142-24.489l3.979-6.881
			c3.08-5.35,5.121-10.22,6.021-14.609C312.532,144.838,310.512,139.998,307.442,134.668z M302.512,158.317l-3.799,6.561
			l-2.104,3.649l-13.721,23.781c-5.398,9.357-7.898,15.68-7.898,20.17c0,2.879,1.029,5.039,2.979,6.75
			c-6.289-2.121-11.99,2.351-20.869,17.738l-13.711,23.75l-2.119,3.659l-3.779,6.562c-1.869,3.24-3.777,6-5.789,8.119l-0.012,0.01
			c-2.818,0.681-6.158,0.938-9.93,0.938H182.54c-8.869,0-15.012,0.683-19.067,2.183c-4.062,1.5-6.062,3.81-6.721,7.067
			c-1.289-6.512-8.01-9.25-25.779-9.25h-39.23c-3.75,0-7.079-0.262-9.899-0.932c-0.05-0.012-0.101-0.021-0.149-0.028h-0.01
			c-1.961-2.107-3.851-4.842-5.701-8.052l-3.72-6.471l-2.21-3.812l-13.68-23.698c-7.52-13.021-12.78-18.24-18.04-18.24
			c-0.931,0-1.89,0.16-2.851,0.49c5-4.393,4-11.521-4.899-26.899l-13.75-23.85l-2.149-3.721l-3.721-6.42
			c-1.88-3.261-3.33-6.311-4.16-9.09c-0.01-0.021-0.01-0.04-0.02-0.061c0.83-2.801,2.279-5.841,4.16-9.101l3.67-6.351l2.22-3.83
			l13.729-23.8c5.391-9.33,7.86-15.641,7.86-20.149c0-2.92-1.03-5.08-3-6.79c6.29,2.109,12.05-2.32,20.92-17.71l13.75-23.801
			l2.16-3.721l3.71-6.47c1.891-3.26,3.811-6.04,5.82-8.16c2.83-0.68,6.199-0.939,9.959-0.939h39.23c8.881,0,15-0.681,19.061-2.189
			c4.07-1.5,6.07-3.811,6.709-7.069c1.298,6.51,8.031,9.26,25.798,9.26h39.224c3.729,0,7.062,0.261,9.881,0.92l0.01,0.011
			c2.013,2.13,3.959,4.92,5.853,8.22l3.762,6.511l2.09,3.63l13.77,23.841c7.529,13.06,12.604,18.34,17.789,18.34
			c0.951,0,1.871-0.17,2.82-0.49c-4.979,4.37-3.719,11.421,5.17,26.801l13.721,23.76l2.131,3.71l3.771,6.511
			c1.871,3.25,3.32,6.279,4.148,9.061C305.842,152.008,304.393,155.057,302.512,158.317z"/>
	</g>
</g>
<g id="Layer_2">
</g>
<polyline points="205.913,159.385 205.913,138.985 68.782,68.647 68.782,89.049 "/>
<polyline points="107.545,159.385 107.545,138.985 244.672,68.647 244.672,89.049 "/>
<polyline points="107.545,138.998 107.545,159.397 244.672,229.733 244.672,209.333 "/>
<polyline points="205.913,138.998 205.913,159.397 68.782,229.733 68.782,209.333 "/>
</svg>
