<?xml version="1.0" encoding="utf-8"?>
<!-- Generator: Adobe Illustrator 16.0.0, SVG Export Plug-In . SVG Version: 6.00 Build 0)  -->
<!DOCTYPE svg PUBLIC "-//W3C//DTD SVG 1.1//EN" "http://www.w3.org/Graphics/SVG/1.1/DTD/svg11.dtd">
<svg version="1.1" xmlns="http://www.w3.org/2000/svg" xmlns:xlink="http://www.w3.org/1999/xlink" x="0px" y="0px"
	 width="547.06px" height="161.76px" viewBox="0 0 547.06 161.76" style="enable-background:new 0 0 547.06 161.76;"
	 xml:space="preserve">
<style type="text/css">
<![CDATA[
	.st0{fill:#FFFFFF;}
	.st1{display:none;}
	.st2{fill:#76D3A1;}
	.st3{display:inline;fill:#96C0A5;stroke:#96C0A5;stroke-width:0.9542;stroke-miterlimit:10;}
]]>
</style>
<g id="bike">
	<g class="st1">
		<path class="st3" d="M207.55,75.9c0,0.97-1.37,1.8-4.1,2.48s-6.02,1.03-9.86,1.03c-3.87,0-7.17-0.34-9.9-1.03s-4.1-1.51-4.1-2.48
			c0-0.7,0.76-1.34,2.27-1.91c1.51-0.57,3.5-1,5.96-1.28l-1.08-0.7l-15.3,4.59l-4.05-0.1c-0.57,0.83-2.15,1.52-4.75,2.07
			c-2.59,0.55-5.6,0.83-9.02,0.83c-3.84,0-7.13-0.34-9.86-1.03c-2.73-0.68-4.1-1.51-4.1-2.48c0-0.96,1.37-1.79,4.1-2.47
			c2.73-0.68,6.03-1.03,9.9-1.03c1.89,0,3.69,0.09,5.4,0.27l3.38-1.87l-1.22-0.86l0.23-0.02l-0.86-0.63c-0.99,0-1.8-0.02-2.43-0.07
			c-1.05-0.07-1.58-0.19-1.58-0.36c0-0.32,0.45-0.49,1.35-0.49c0.48,0,1.16,0.03,2.03,0.08c0.87,0.06,1.49,0.08,1.85,0.08
			c0.42,0,0.98-0.01,1.67-0.03c0.69-0.02,1.13-0.03,1.3-0.03c0.51,0,0.77,0.08,0.77,0.25c0,0.05-0.5,0.15-1.49,0.28
			c-0.99,0.13-1.82,0.22-2.48,0.26l0.86,0.58l0.2-0.02l0.88,0.61h20.98l-1.76-1.21v-0.4h8.1v0.4h-6.57l4.86,3.36
			c1.44-0.12,2.93-0.18,4.46-0.18c3.87,0,7.16,0.34,9.88,1.02C206.19,74.1,207.55,74.93,207.55,75.9z M165.86,76.47l-13.14-0.3
			l5.72-3.14c-1.59-0.17-3.18-0.25-4.77-0.25c-3.42,0-6.35,0.3-8.78,0.92c-2.43,0.61-3.65,1.34-3.65,2.2c0,0.86,1.21,1.59,3.62,2.2
			c2.42,0.61,5.33,0.92,8.76,0.92c3.03,0,5.69-0.24,7.99-0.72C163.91,77.81,165.32,77.2,165.86,76.47z M166.04,76.08V75.9
			c0-1.2-2.1-2.11-6.3-2.71l-4.68,2.63L166.04,76.08z M170.32,76.18l-7.16-4.89l-2.75,1.55c4.8,0.67,7.2,1.69,7.2,3.06v0.23
			L170.32,76.18z M186.26,71.62l-1.22-0.82h-20.93l7.56,5.19L186.26,71.62z M206.02,75.9c0-0.86-1.22-1.59-3.65-2.2
			c-2.43-0.61-5.36-0.92-8.78-0.92c-1.29,0-2.61,0.06-3.96,0.17c1.47,1.03,2.66,1.84,3.56,2.42l1.04,0.64c0,0.09-0.2,0.14-0.59,0.14
			c-0.45,0-0.99-0.21-1.62-0.63l-3.65-2.44c-4.8,0.56-7.2,1.5-7.2,2.82c0,0.86,1.22,1.59,3.65,2.2c2.43,0.61,5.36,0.92,8.78,0.92
			s6.35-0.31,8.78-0.92C204.8,77.49,206.02,76.75,206.02,75.9z"/>
	</g>
</g>
<g id="bike_trace">
	<path class="st2" d="M208.22,56.35c-4.69,0-9.27,0.6-13.58,1.77l-16.02-44.04h23.48V4.32h-33.76v9.76l6.23,17.18H97.75l-4.46-12.26
		l-1.27,0.45l-1.5-4.17c6.68-2.29,11.74-6.04,12-7.27c0.34-1.84,0.75-5.63-3.75-6.34c-4.54-0.71-10.8,1.95-19.47-0.53
		c-8.67-2.48-13.09-1.09-13.62,6.08c-0.41,6.22,4.65,10.39,15.46,9.9c0.82-0.04,1.65-0.11,2.47-0.22l1.8,4.95l-1.24,0.45l4.54,12.49
		L74.68,61.15c-6.68-3.08-14.14-4.8-21.94-4.8C23.59,56.35,0,79.94,0,109.05c0,29.11,23.59,52.71,52.74,52.71
		c27.53,0,50.12-21.16,52.44-48.09h18.83l56.19-66.96l5.36,14.74c-17.78,8.44-30.08,26.59-30.08,47.6
		c0,29.11,23.59,52.71,52.74,52.71c29.11,0,52.67-23.59,52.67-52.71C260.89,79.94,237.33,56.35,208.22,56.35z M78.13,75.97
		c8.55,6.56,14.48,16.35,15.94,27.53H63.51L78.13,75.97z M52.74,150.76c-23.07,0-41.75-18.64-41.75-41.71
		c0-23.03,18.68-41.75,41.75-41.75c5.97,0,11.67,1.28,16.81,3.56c0,0-21.81,40.98-22.01,41.38c-0.52,1.01,0,1.41,0.9,1.42
		c0.54,0,45.75,0,45.75,0C91.9,134.56,74.2,150.76,52.74,150.76z M105.1,103.5c-1.61-15.38-9.83-28.77-21.76-37.32l9.98-18.79
		l20.41,56.12H105.1z M122.77,100.01l-21.38-58.78h70.75L122.77,100.01z M208.22,150.76c-23.07,0-41.75-18.64-41.75-41.71
		c0-16.24,9.3-30.35,22.88-37.21l14.67,40.37l9.12-3.34l-14.7-40.4c3.15-0.75,6.41-1.17,9.79-1.17c23.03,0,41.71,18.72,41.71,41.75
		C249.94,132.12,231.26,150.76,208.22,150.76z"/>
</g>
<g id="text">
	<g>
		<path class="st0" d="M132.81,92.47c12.48,0,19.99,5.29,19.99,5.29v12.01h-13.12c0,0-0.4-5.29-5.14-5.29
			c-3.87,0-5.69,3.48-5.69,9.17c0,6.64,4.58,10.11,9.4,10.11c6.4,0,12.56-3.63,12.56-3.63l3.32,11.3c0,0-6.95,5.45-18.88,5.45
			c-13.51,0-23.23-7.74-23.23-22.2C112.03,100.84,120.4,92.47,132.81,92.47z"/>
		<path class="st0" d="M180.53,106.69h-2.84V93.65h21.25v13.04h-1.9l-8.3,20.54l-3.79,9.4c-4.03,10.27-8.06,17.46-18.41,17.46
			c-6.64,0-10.82-1.34-10.82-1.34l1.58-11.54c10.19,2.37,12.25-1.11,13.75-4.9h-3.16l-11.61-29.63h-2.05V93.65h21.25v13.04h-2.69
			l3.79,9.72L180.53,106.69z"/>
		<path class="st0" d="M219.71,92.47c12.48,0,19.99,5.29,19.99,5.29v12.01h-13.12c0,0-0.4-5.29-5.14-5.29
			c-3.87,0-5.69,3.48-5.69,9.17c0,6.64,4.58,10.11,9.4,10.11c6.4,0,12.56-3.63,12.56-3.63l3.32,11.3c0,0-6.95,5.45-18.88,5.45
			c-13.51,0-23.23-7.74-23.23-22.2C198.94,100.84,207.31,92.47,219.71,92.47z"/>
		<path class="st0" d="M243.02,122.49h4.27V88.2h-4.27V75.17h21.1v47.33h4.27v13.04h-25.36V122.49z"/>
		<path class="st0" d="M293.98,92.55c13.04,0,23.62,6.95,23.62,22.12c0,14.7-10.59,22.28-23.62,22.28
			c-13.04,0-23.62-7.66-23.62-22.28C270.36,99.82,280.95,92.55,293.98,92.55z M293.83,125.26c3.79,0,6.87-3.24,6.87-10.59
			c0-7.51-2.84-10.75-6.87-10.75c-3.79,0-6.79,3.24-6.79,10.75C287.03,122.02,290.03,125.26,293.83,125.26z"/>
		<path class="st0" d="M319.98,141.22h4.35v-34.53h-4.35V93.65h21.1v2.69c3.48-2.45,7.74-3.87,11.93-3.87
			c8.85,0,17.22,6.32,17.22,22.2s-8.45,22.2-17.3,22.2c-4.19,0-8.38-1.34-11.85-3.79v8.14h4.5v12.8h-25.6V141.22z M341.07,105.35
			v18.8c3.56,1.66,12.33,4.19,12.33-9.48C353.4,101.16,344.63,103.69,341.07,105.35z"/>
		<path class="st0" d="M414,119.33l2.92,11.54c0,0-6.64,6.08-20.23,6.08c-14.3,0-24.89-6.4-24.89-22.28
			c0-16.28,10.67-22.2,22.36-22.2c17.07,0,22.83,8.45,22.83,20.31c0,1.19-0.08,2.37-0.16,3.56h-27.89
			c1.11,5.69,5.53,7.35,10.82,7.35C407.28,123.68,414,119.33,414,119.33z M399.93,111.19c0-5.53-2.21-7.35-5.37-7.35
			s-5.37,1.74-5.77,7.35H399.93z"/>
		<path class="st0" d="M464.41,119.65c0,3.16,2.05,3.32,4.27,2.84v12.72c0,0-3.24,1.66-9.09,1.66c-5.45,0-8.53-2.21-10.19-5.06
			c-4.27,3.87-10.11,5.06-13.51,5.06c-8.85,0-17.22-6.32-17.22-22.2s8.45-22.2,17.3-22.2c4.03,0,8.14,1.34,11.61,3.63v-7.9h-4.27
			V75.17h21.1V119.65z M447.58,124.15v-19.04c-3.71-1.66-12.09-3.79-12.09,9.56C435.49,126.76,442.76,126.44,447.58,124.15z"/>
		<path class="st0" d="M470.65,122.49h4.27v-15.8h-4.27V93.65h21.1v28.84h4.27v13.04h-25.36V122.49z M483.21,71.61
			c5.53,0,9.96,4.5,9.96,9.96c0,5.61-4.42,9.88-9.96,9.88c-5.37,0-9.72-4.27-9.72-9.88C473.49,76.11,477.84,71.61,483.21,71.61z"/>
		<path class="st0" d="M496.48,115.85c0-17.3,11.69-23.39,25.76-23.39c10.9,0,20.23,4.42,20.23,4.42v22.75
			c0,3.16,2.05,3.32,4.27,2.84v12.72c0,0-3.24,1.66-9.09,1.66c-5.21,0-8.22-1.97-9.96-4.58c-3.87,3.08-8.38,4.58-12.64,4.58
			C505.41,136.87,496.48,130.55,496.48,115.85z M525.64,104.95c0,0-2.21-1.11-4.82-1.11c-3.48,0-7.51,2.13-7.51,10.67
			c0,8.61,3.32,10.82,6.95,10.82c1.82,0,3.79-0.55,5.37-1.18V104.95z"/>
	</g>
	<g>
	</g>
	<g>
	</g>
	<g>
	</g>
	<g>
	</g>
	<g>
	</g>
	<g>
	</g>
	<g>
	</g>
	<g>
	</g>
	<g>
	</g>
	<g>
	</g>
	<g>
	</g>
	<g>
	</g>
	<g>
	</g>
	<g>
	</g>
	<g>
	</g>
</g>
</svg>
