<?xml version="1.0" encoding="utf-8"?>
<!-- Generator: Adobe Illustrator 16.0.0, SVG Export Plug-In . SVG Version: 6.00 Build 0)  -->
<!DOCTYPE svg PUBLIC "-//W3C//DTD SVG 1.1//EN" "http://www.w3.org/Graphics/SVG/1.1/DTD/svg11.dtd">
<svg version="1.1" id="Layer_1" xmlns="http://www.w3.org/2000/svg" xmlns:xlink="http://www.w3.org/1999/xlink" x="0px" y="0px"
	 width="92px" height="80px" viewBox="0 0 92 80" enable-background="new 0 0 92 80" xml:space="preserve">
<g>
	<path fill="#FFFFFF" d="M77.119,26.002l-5.998-5.999l6.002-6.002l-0.006-0.005c1.363-1.406-0.842-3.504-2.176-2.055L69,17.882
		l-5.973-5.972c-0.01-0.011-0.021-0.021-0.031-0.032l-0.016-0.016l-0.002,0.001c-1.369-1.294-3.403,0.743-2.115,2.115l-0.004,0.004
		l6.02,6.02l-5.969,5.969c-0.012,0.011-0.021,0.021-0.032,0.032l-0.017,0.016l0.002,0.001c-1.288,1.373,0.746,3.409,2.115,2.115
		l0.004,0.004L69,22.124l5.973,5.971c0.006,0.008,0.014,0.015,0.021,0.022l0.005,0.005H75c1.37,1.331,3.445-0.747,2.117-2.119
		L77.119,26.002z"/>
	<path fill="#FFFFFF" d="M33,12H13c-1.935,0-1.935,3,0,3h20C34.935,15,34.935,12,33,12z"/>
	<path fill="#FFFFFF" d="M33,19H13c-1.935,0-1.935,3,0,3h20C34.935,22,34.935,19,33,19z"/>
	<path fill="#FFFFFF" d="M33,26H13c-1.935,0-1.935,3,0,3h20C34.935,29,34.935,26,33,26z"/>
</g>
<g>
	<path d="M77.123,65.996l-6.003-6.003l5.915-5.916c1.467-1.31-0.604-3.569-2.03-2.195l-0.008-0.008l-5.998,5.998l-6.017-6.017
		l-0.01,0.012c-1.441-1.348-3.479,0.927-2.002,2.219l5.906,5.907l-6.021,6.021l0.012,0.012c-1.373,1.44,0.931,3.504,2.22,2
		l5.911-5.91l5.896,5.896c1.283,1.545,3.631-0.562,2.217-2.004L77.123,65.996z"/>
	<path d="M33,52.008V52H13v0.008c-1.981,0-1.905,3.067,0.077,2.992h19.846C34.905,55.075,34.981,52.008,33,52.008z"/>
	<path d="M33,59.008V59H13v0.008c-1.981,0-1.905,3.067,0.077,2.992h19.846C34.905,62.075,34.981,59.008,33,59.008z"/>
	<path d="M33,66.008V66H13v0.008c-1.981,0-1.905,3.067,0.077,2.992h19.846C34.905,69.075,34.981,66.008,33,66.008z"/>
</g>
</svg>
