<?xml version="1.0" encoding="utf-8"?>
<!-- Generator: Adobe Illustrator 16.0.0, SVG Export Plug-In . SVG Version: 6.00 Build 0)  -->
<!DOCTYPE svg PUBLIC "-//W3C//DTD SVG 1.1//EN" "http://www.w3.org/Graphics/SVG/1.1/DTD/svg11.dtd">
<svg version="1.1" id="Layer_1" xmlns="http://www.w3.org/2000/svg" xmlns:xlink="http://www.w3.org/1999/xlink" x="0px" y="0px"
	 width="313.458px" height="298.396px" viewBox="0 0 313.458 298.396" enable-background="new 0 0 313.458 298.396"
	 xml:space="preserve">
<g id="Layer_2">
</g>
<path fill="#FFFFFF" stroke="#000000" stroke-width="3" stroke-miterlimit="10" d="M75.314,90.873
	C69.301,74.686,47.795,40.924,8.715,43.005c-25.091,65.558,28.211,116.085,28.211,116.085
	c-7.862,34.225,4.625,102.211,78.625,117.011c73.998,14.801,161.077-24.901,71.816-165.5l-6.143-59.271l-77.236,35.844
	L75.314,90.873z"/>
<path fill="#4D4D4D" d="M97.223,255.64c8.651-1.042,15.685-6.572,19.026-13.977l152.272,5.78
	c3.94,9.867,14.143,16.254,25.193,14.923c7.409-0.894,13.629-5.08,17.368-10.91l-20.709-0.79l0.897-23.63l21.129,0.794
	c-4.397-8.89-14.046-14.479-24.443-13.222c-8.802,1.06-15.916,6.752-19.193,14.347l-151.961-5.765
	c-3.826-10.073-14.149-16.644-25.336-15.295c-13.183,1.59-22.585,13.564-20.995,26.75C72.062,247.829,84.04,257.233,97.223,255.64z
	 M78.123,227.518l3.912-2.457l-0.193-4.602l4.597-0.357l1.972-4.178l4.246,1.838l3.688-2.794l2.906,3.589l4.55-0.744l0.909,4.518
	l1.355,0.452l3.025,1.002l-1.296,4.435l3.211,3.316l-3.221,3.323l1.29,4.441l-4.38,1.438l-0.098,0.488l-0.813,4.036l-4.565-0.762
	l-2.905,3.593l-3.677-2.799l-4.252,1.826l-1.958-4.181l-4.597-0.354l0.196-4.624l-3.918-2.46l2.332-3.982L78.123,227.518z"/>
<path fill="#FFFFFF" stroke="#000000" stroke-width="3" stroke-miterlimit="10" d="M172.669,60.348
	c-52.031,42.665,69.374,83.596,65.905,43.475c-11.1-40.814-44.399-85.792-57.813-84.405c-13.411,1.388-36.536,29.137-41.392,48.562
	c-17.807-3.238-51.567,4.625-77.005,38.387"/>
<path fill="#FFFFFF" stroke="#000000" stroke-width="3" stroke-miterlimit="10" d="M129.889,219.677
	c17.112,20.812,36.537,35.611,66.598,30.525c30.063-5.087,63.634-24.885,54.921-68.448c-5.202-26.017-61.742-33.647-79.432-29.832"
	/>
<path fill="#4D4D4D" d="M180.761,193.546c3.008-10.174,35.844-13.874,40.699-4.855c4.857,9.019-13.179,25.438-20.349,27.056
	c-7.169,1.619-19.193-12.719-20.351-21.506"/>
<ellipse transform="matrix(0.9696 -0.2448 0.2448 0.9696 -26.5525 39.795)" fill="#4D4D4D" cx="146.831" cy="126.726" rx="9.885" ry="23.487"/>
<ellipse transform="matrix(0.9696 -0.2447 0.2447 0.9696 -29.4615 30.2389)" fill="#4D4D4D" cx="106.941" cy="133.663" rx="9.885" ry="23.487"/>
</svg>
