<?xml version="1.0" encoding="utf-8"?>
<!-- Generator: Adobe Illustrator 16.0.0, SVG Export Plug-In . SVG Version: 6.00 Build 0)  -->
<!DOCTYPE svg PUBLIC "-//W3C//DTD SVG 1.1//EN" "http://www.w3.org/Graphics/SVG/1.1/DTD/svg11.dtd">
<svg version="1.1" id="Layer_1" xmlns="http://www.w3.org/2000/svg" xmlns:xlink="http://www.w3.org/1999/xlink" x="0px" y="0px"
	 width="300px" height="300px" viewBox="0 0 300 300" enable-background="new 0 0 300 300" xml:space="preserve">
<g>
	<path d="M178.337,0.879c-52.491,0-95.182,42.718-95.182,95.182c0,26.873,11.191,51.185,29.159,68.502L25.79,282.149l23.034,16.937
		l86.796-117.97c12.851,6.478,27.363,10.128,42.717,10.128c52.463,0,95.184-42.691,95.184-95.184
		C273.521,43.597,230.8,0.879,178.337,0.879z M178.337,164.018c-9.311,0-18.16-1.877-26.244-5.281
		c-8.958-3.76-16.936-9.395-23.443-16.393c-11.326-12.142-18.27-28.421-18.27-46.283c0-37.463,30.494-67.956,67.957-67.956
		c37.465,0,67.955,30.493,67.955,67.956C246.292,133.523,215.802,164.018,178.337,164.018z"/>
</g>
</svg>
