<?xml version="1.0" encoding="utf-8"?>
<!-- Generator: Adobe Illustrator 16.0.0, SVG Export Plug-In . SVG Version: 6.00 Build 0)  -->
<!DOCTYPE svg PUBLIC "-//W3C//DTD SVG 1.1//EN" "http://www.w3.org/Graphics/SVG/1.1/DTD/svg11.dtd">
<svg version="1.1" id="Layer_1" xmlns="http://www.w3.org/2000/svg" xmlns:xlink="http://www.w3.org/1999/xlink" x="0px" y="0px"
	 width="300px" height="300px" viewBox="0 0 300 300" enable-background="new 0 0 300 300" xml:space="preserve">
<path fill="#FFFFFF" d="M187.5,1.5C125.92,1.5,76,51.42,76,113c0,25.56,8.6,49.11,23.07,67.92L4.745,275.245l20.51,20.51
	l94.325-94.325c18.81,14.471,42.36,23.07,67.92,23.07c61.58,0,111.5-49.92,111.5-111.5S249.08,1.5,187.5,1.5z M187.5,195.5
	c-17.54,0-33.8-5.48-47.17-14.82c-7.99-5.569-14.94-12.52-20.51-20.51C110.48,146.8,105,130.54,105,113
	c0-45.56,36.94-82.5,82.5-82.5c45.56,0,82.5,36.94,82.5,82.5C270,158.56,233.06,195.5,187.5,195.5z"/>
</svg>
